<svg width="47" height="52" viewBox="0 0 47 52" fill="none" xmlns="http://www.w3.org/2000/svg">
<g clip-path="url(#clip0_1336_5003)">
<path d="M25.9717 10.4898H27.9717V8.4898V6.69388C27.9717 4.10139 25.8704 2 23.2779 2C20.6854 2 18.584 4.10139 18.584 6.69388V8.4898V10.4898H20.584H25.9717Z" fill="#FFA500" stroke="black" stroke-width="4"/>
<path d="M23.2784 50C27.8545 50 31.5641 46.2904 31.5641 41.7143C31.5641 37.1382 27.8545 33.4286 23.2784 33.4286C18.7023 33.4286 14.9927 37.1382 14.9927 41.7143C14.9927 46.2904 18.7023 50 23.2784 50Z" fill="#FFA500" stroke="black" stroke-width="4"/>
<path d="M39.4872 29.9553L39.486 29.942L39.4846 29.9287L38.2611 18.1285C37.9279 14.1069 35.7334 10.4354 32.2841 8.28933L32.2838 8.28917C21.1799 1.38288 9.08097 8.66098 8.18445 19.487L7.07265 29.9268L7.07101 29.9422L7.06961 29.9576C6.95307 31.2402 6.44599 32.4571 5.61692 33.4438C5.61685 33.4439 5.61678 33.444 5.61672 33.444L3.0308 36.5202L3.03055 36.5205C0.638256 39.3674 2.66135 43.7142 6.3819 43.7142H40.1739C43.8945 43.7142 45.9175 39.3674 43.5252 36.5205L43.5249 36.5201L40.9407 33.4465C40.1102 32.4586 39.6031 31.2404 39.4872 29.9553Z" fill="#FFCE29" stroke="black" stroke-width="4"/>
<path opacity="0.3" d="M37.0042 13.3495L35.8732 14.5123C33.7951 16.6487 30.4429 17.1426 27.7999 15.4986L37.0042 13.3495ZM37.0042 13.3495L36.0999 12.0028M37.0042 13.3495L36.0999 12.0028M36.0999 12.0028C35.122 10.5464 33.8455 9.2597 32.2838 8.28917C21.1799 1.38286 9.08092 8.66101 8.18445 19.4871L7.71289 23.9178L7.50328 25.8873M36.0999 12.0028L7.50328 25.8873M7.50328 25.8873L9.39197 26.1069M7.50328 25.8873L9.39197 26.1069M9.39197 26.1069C9.39952 26.1084 9.40739 26.1099 9.41549 26.1115C9.46685 26.1211 9.54031 26.1333 9.62866 26.1415L9.64124 26.1427L9.65384 26.1437C9.82454 26.1574 10.0012 26.1654 10.1812 26.1654C13.5302 26.1654 16.3703 23.5952 16.6456 20.199L16.6457 20.1979C16.8338 17.8611 18.1903 15.8461 20.2895 14.7881L9.39197 26.1069ZM20.2898 14.7879C21.5357 14.1605 24.2424 13.2864 27.7996 15.4985L20.2898 14.7879Z" fill="white" stroke="black" stroke-width="4"/>
<path opacity="0.15" d="M43.5257 36.5206L43.5256 36.5204L40.9422 33.4467L40.9421 33.4466C40.1116 32.4587 39.6045 31.2405 39.4886 29.9554L39.4874 29.9421L39.486 29.9288L39.0236 25.4687L38.8173 23.479L36.8276 23.6856C33.3075 24.0513 30.7145 27.1725 31.0329 30.7163L31.0329 30.7166C31.1739 32.2843 31.5585 33.8017 32.1691 35.2245H21.4825C17.8986 35.2245 14.9927 38.1304 14.9927 41.7143V43.7143H16.9927H40.1744C43.8949 43.7143 45.918 39.3675 43.5257 36.5206Z" fill="black" stroke="black" stroke-width="4"/>
<path d="M15.9234 17.1146L17.7137 18.0061C18.0529 17.3252 18.5117 16.7143 19.0841 16.1865L19.0858 16.1849C19.6541 15.6597 20.2997 15.2518 21.0079 14.9677L21.009 14.9673C22.7235 14.2783 23.5558 12.3311 22.8688 10.6159L22.868 10.6139C22.1797 8.90109 20.2297 8.06605 18.5161 8.75515C17.0468 9.34415 15.7102 10.1916 14.5456 11.2663L14.5455 11.2664C13.3792 12.3427 12.428 13.6065 11.7225 15.0217L11.7216 15.0234C10.8985 16.6786 11.5727 18.6854 13.2242 19.51L13.2266 19.5112C13.7007 19.7472 14.211 19.8626 14.7175 19.8626C15.9432 19.8626 17.1294 19.1837 17.715 18.0036L15.9234 17.1146ZM15.9234 17.1146C15.6882 17.5887 15.2123 17.8626 14.7175 17.8626C14.5154 17.8626 14.3107 17.8168 14.1177 17.7207C13.4523 17.3884 13.1811 16.5803 13.5124 15.914L15.9019 12.7361C16.8897 11.8247 18.0193 11.109 19.2603 10.6115C19.9472 10.3341 20.7347 10.669 21.0122 11.3595C21.2888 12.0501 20.9538 12.834 20.2633 13.1115C19.3276 13.4868 18.4746 14.0265 17.7283 14.7161C16.9794 15.4067 16.3724 16.213 15.9234 17.1146Z" fill="white" stroke="black" stroke-width="4"/>
<path d="M25.9717 8.4898H20.584V6.69388C20.584 5.20596 21.7899 4 23.2779 4C24.7658 4 25.9717 5.20596 25.9717 6.69388V8.4898Z" fill="#FFA500"/>
<path d="M23.2784 48C26.7499 48 29.5641 45.1858 29.5641 41.7143C29.5641 38.2428 26.7499 35.4286 23.2784 35.4286C19.8069 35.4286 16.9927 38.2428 16.9927 41.7143C16.9927 45.1858 19.8069 48 23.2784 48Z" fill="#FFA500"/>
<path d="M39.4097 34.7334C38.316 33.4323 37.6479 31.8276 37.4953 30.135L36.2696 18.3134C35.993 14.9011 34.1342 11.796 31.2275 9.98747C21.4101 3.88135 10.9363 10.2982 10.1758 19.6747L9.06141 30.1386C8.90786 31.8285 8.23977 33.4314 7.14786 34.7307L4.56173 37.8072C3.26238 39.3534 4.36149 41.7142 6.3819 41.7142H40.1739C42.1943 41.7142 43.2934 39.3534 41.9941 37.8072L39.4097 34.7334Z" fill="#FFCE29"/>
<path opacity="0.3" d="M19.3897 13.0019C21.0779 12.1516 24.553 11.1243 28.856 13.8002C30.6807 14.9352 33.0001 14.5976 34.4395 13.1178C33.6062 11.8768 32.5296 10.7965 31.2275 9.98747C21.4102 3.88135 10.9364 10.2982 10.1758 19.6747L9.70166 24.1294C9.74027 24.1339 9.77529 24.1465 9.81391 24.1501C9.93693 24.16 10.0599 24.1654 10.1812 24.1654C12.497 24.1654 14.4617 22.3865 14.6521 20.0374C14.8964 17.0032 16.6689 14.3731 19.3897 13.0019Z" fill="white"/>
<path opacity="0.15" d="M41.9946 37.8073L39.4111 34.7335C38.3174 33.4324 37.6493 31.8277 37.4967 30.1351L37.0342 25.6749C34.5963 25.9282 32.8048 28.0886 33.0248 30.5374C33.1964 32.4437 33.7827 34.2594 34.7408 35.8829C35.091 36.4756 34.6349 37.2245 33.9462 37.2245H21.4825C19.0032 37.2245 16.9927 39.235 16.9927 41.7143H40.1744C42.1948 41.7143 43.2939 39.3535 41.9946 37.8073Z" fill="black"/>
<path d="M14.7175 17.8626C14.5154 17.8626 14.3107 17.8168 14.1177 17.7207C13.4523 17.3884 13.1811 16.5803 13.5124 15.914C14.1087 14.7179 14.9123 13.6493 15.9019 12.7361C16.8897 11.8247 18.0193 11.109 19.2603 10.6115C19.9472 10.3341 20.7347 10.669 21.0122 11.3595C21.2888 12.0501 20.9538 12.834 20.2633 13.1115C19.3276 13.4868 18.4746 14.0265 17.7283 14.7161C16.9794 15.4066 16.3724 16.213 15.9234 17.1146C15.6882 17.5887 15.2123 17.8626 14.7175 17.8626Z" fill="white"/>
</g>
<defs>
<clipPath id="clip0_1336_5003">
<rect width="47" height="52" fill="white"/>
</clipPath>
</defs>
</svg>
