<svg width="66" height="52" viewBox="0 0 66 52" fill="none" xmlns="http://www.w3.org/2000/svg">
<g clip-path="url(#clip0_1336_4992)">
<path d="M36.2696 2.94214H29.6742C18.8554 2.94214 8.99857 9.15702 4.33484 18.9191C-2.39312 33.002 7.87342 49.2847 23.4809 49.2847H42.4794C57.9952 49.2847 68.2529 33.1616 61.6784 19.1075C57.0643 9.24406 47.1588 2.94214 36.2696 2.94214Z" fill="white" stroke="black" stroke-width="4"/>
<circle cx="51.5703" cy="32.9718" r="4.77099" fill="#3ED848"/>
<circle cx="15.7881" cy="32.9718" r="4.77099" fill="#3ED848"/>
<path d="M47.143 14.1802C48.1699 14.4553 49.264 13.7961 48.9541 12.7791V12.7791C48.7589 12.1389 48.3902 11.5245 47.8757 10.9822C47.3612 10.4398 46.7142 9.98362 45.9835 9.64789C45.2528 9.31217 44.4574 9.10565 43.6571 9.04388C42.8567 8.98211 42.0723 9.0667 41.3628 9.29127C40.6534 9.51585 40.0373 9.87457 39.561 10.3405C39.0846 10.8063 38.7605 11.3673 38.6128 11.981V11.981C38.35 13.0735 39.5096 13.7907 40.6258 13.6608L43.1386 13.3683C43.5874 13.316 44.042 13.3493 44.4784 13.4662L47.143 14.1802Z" fill="black"/>
<path d="M21.4088 14.1802C20.3819 14.4553 19.2877 13.7961 19.5977 12.7791V12.7791C19.7929 12.1389 20.1616 11.5245 20.6761 10.9822C21.1906 10.4398 21.8375 9.98362 22.5682 9.64789C23.2989 9.31217 24.0944 9.10565 24.8947 9.04388C25.695 8.98211 26.4795 9.0667 27.1889 9.29127C27.8984 9.51585 28.5145 9.87457 28.9908 10.3405C29.4671 10.8063 29.7913 11.3673 29.9389 11.981V11.981C30.2018 13.0736 29.0421 13.7907 27.926 13.6608L25.4132 13.3683C24.9644 13.316 24.5098 13.3493 24.0733 13.4662L21.4088 14.1802Z" fill="black"/>
<circle cx="25.9257" cy="21.6402" r="2.98187" fill="black"/>
<circle cx="42.624" cy="21.6402" r="2.98187" fill="black"/>
<path d="M29.1848 37.1248C30.9012 37.891 32.7516 38.3116 34.6306 38.3627C36.5095 38.4137 38.38 38.0942 40.1355 37.4224" stroke="black" stroke-width="4.77099" stroke-linecap="round" stroke-linejoin="round"/>
</g>
<defs>
<clipPath id="clip0_1336_4992">
<rect width="66" height="52" fill="white"/>
</clipPath>
</defs>
</svg>
