<svg width="398" height="683" viewBox="0 0 398 683" fill="none" xmlns="http://www.w3.org/2000/svg">
<g clip-path="url(#clip0_991_7032)">
<path d="M130.955 -170H274.748L398 621H0L130.955 -170Z" fill="url(#paint0_linear_991_7032)"/>
<ellipse cx="199" cy="621.5" rx="199" ry="61.5" fill="#E0B114"/>
<path d="M323.398 488.281C336.484 575.65 274.98 621.389 199.082 621.389C123.183 621.389 61.6793 575.65 74.7653 488.281C87.8512 400.912 130.424 346.811 199.082 346.811C267.74 346.811 310.312 400.912 323.398 488.281Z" fill="#F85454"/>
<path d="M105.385 507.166C98.5149 534.501 106.626 565.453 118.755 576.249" stroke="#FFC2CB" stroke-width="13.7432" stroke-linecap="round"/>
<path d="M293.481 507.166C300.351 534.501 292.24 565.453 280.111 576.249" stroke="#FFC2CB" stroke-width="13.7432" stroke-linecap="round"/>
<path d="M141.95 527.641C135.962 551.321 141.864 577.223 155.132 585.494" stroke="#FFC2CB" stroke-width="13.7432" stroke-linecap="round"/>
<path d="M256.915 527.641C262.902 551.321 257 577.223 243.732 585.494" stroke="#FFC2CB" stroke-width="13.7432" stroke-linecap="round"/>
<rect x="169.219" y="566.893" width="14.9341" height="59.992" rx="7.46703" transform="rotate(-90 169.219 566.893)" fill="#FFC2CB"/>
<rect x="191.743" y="529.429" width="14.9341" height="59.992" rx="7.46703" fill="#FFC2CB"/>
<path d="M114.283 429.168C127.048 398.081 157.326 377.784 190.931 377.784H207.934C241.539 377.784 271.817 398.081 284.582 429.168C298.016 461.883 273.959 497.768 238.593 497.768H160.272C124.906 497.768 100.849 461.883 114.283 429.168Z" fill="#FFE7E7"/>
<path d="M190.165 447.242C195.283 452.361 203.582 452.361 208.701 447.242" stroke="#333333" stroke-width="6.83903" stroke-linecap="round"/>
<circle cx="169.314" cy="433.741" r="5.23456" fill="#333333" stroke="#333333" stroke-width="3.53931"/>
<circle cx="229.552" cy="433.741" r="5.23456" fill="#333333" stroke="#333333" stroke-width="3.53931"/>
<path d="M171.859 413.839C165.594 410.213 157.575 412.352 153.949 418.617" stroke="#333333" stroke-width="6.83903" stroke-linecap="round"/>
<path d="M244.915 419.276C241.296 413.007 233.28 410.859 227.011 414.479" stroke="#333333" stroke-width="6.83903" stroke-linecap="round"/>
<circle cx="13.1069" cy="13.1069" r="13.1069" transform="matrix(-1 0 0 1 152.818 434.442)" fill="#FFC2CB"/>
<circle cx="259.154" cy="447.263" r="13.1069" fill="#FFC2CB"/>
<circle cx="201.206" cy="578.858" r="7.31307" fill="white"/>
<path d="M319.342 466.371C320.913 473.416 322.266 480.724 323.397 488.281C336.483 575.65 274.98 621.388 199.081 621.388C123.183 621.388 61.6788 575.65 74.7646 488.281C75.5774 482.855 76.5046 477.557 77.5439 472.392C112.397 488.669 151.326 497.768 192.396 497.768C238.285 497.768 281.499 486.408 319.342 466.371Z" fill="#333333"/>
<path d="M216.503 620.557C210.801 621.109 204.984 621.387 199.08 621.387C192.284 621.387 185.604 621.018 179.082 620.288L145.538 511.889H252.571L216.503 620.557Z" fill="white"/>
<path d="M175.521 532.633L171.295 532.854C167.607 533.047 164.459 530.213 164.266 526.524L162.727 497.134C162.534 493.446 165.368 490.298 169.057 490.105L173.282 489.883C176.582 489.711 179.829 490.765 182.399 492.845L192.397 500.939L193.376 519.641L184.277 528.735C181.94 531.072 178.821 532.46 175.521 532.633Z" fill="#333333"/>
<path d="M223.612 487.25L227.838 487.029C231.526 486.836 234.674 489.67 234.867 493.359L236.406 522.749C236.599 526.437 233.765 529.585 230.076 529.778L225.851 530C222.551 530.172 219.304 529.118 216.734 527.038L206.736 518.944L205.757 500.242L214.856 491.147C217.193 488.811 220.312 487.423 223.612 487.25Z" fill="#333333"/>
<path d="M207.197 514.9C206.587 514.932 205.972 514.687 205.55 514.183C204.84 513.332 204.954 512.065 205.804 511.355L216.072 502.78C216.925 502.072 218.189 502.184 218.899 503.034C219.61 503.885 219.495 505.151 218.646 505.861L208.378 514.437C208.03 514.725 207.615 514.879 207.197 514.9Z" fill="white"/>
<path d="M218.018 517.011C217.58 517.034 217.13 516.915 216.743 516.637L202.824 506.65C201.925 506.003 201.719 504.75 202.365 503.85C203.011 502.951 204.262 502.743 205.165 503.391L219.084 513.379C219.983 514.026 220.19 515.278 219.543 516.179C219.175 516.694 218.606 516.981 218.018 517.011Z" fill="white"/>
<path d="M192.499 515.671C192.08 515.693 191.651 515.584 191.277 515.333L180.169 507.877C179.25 507.259 179.004 506.012 179.622 505.091C180.242 504.172 181.487 503.929 182.407 504.544L193.515 511.999C194.434 512.617 194.68 513.865 194.062 514.785C193.694 515.331 193.108 515.639 192.499 515.671Z" fill="white"/>
<path d="M181.954 518.901C181.366 518.932 180.77 518.706 180.349 518.232C179.612 517.404 179.686 516.136 180.513 515.4L193.312 504.013C194.144 503.274 195.412 503.351 196.145 504.177C196.882 505.005 196.808 506.273 195.981 507.009L183.182 518.396C182.827 518.712 182.392 518.878 181.954 518.901Z" fill="white"/>
<path d="M223.083 511.39L176.326 513.838C175.22 513.896 174.275 513.046 174.217 511.939C174.159 510.833 175.01 509.889 176.116 509.831L222.873 507.382C223.979 507.324 224.924 508.175 224.982 509.281C225.04 510.387 224.189 511.332 223.083 511.39Z" fill="white"/>
<path d="M203.006 524.498L197.663 524.778C192.498 525.049 188.092 521.081 187.822 515.916L187.402 507.901C187.131 502.736 191.099 498.33 196.264 498.06L201.607 497.78C206.772 497.509 211.178 501.477 211.448 506.642L211.868 514.657C212.139 519.822 208.171 524.228 203.006 524.498Z" fill="#333333"/>
<path opacity="0.15" d="M211.535 522.829L216.734 527.038C219.303 529.118 222.55 530.172 225.85 529.999L230.075 529.778C233.764 529.585 236.598 526.437 236.405 522.749L236.055 516.069C232.365 516.262 229.532 519.409 229.725 523.098L225.5 523.32C223.847 523.406 222.228 522.88 220.941 521.838C218.071 519.516 213.858 519.959 211.535 522.829Z" fill="#333333"/>
<circle cx="199.571" cy="563.509" r="9.3838" fill="#333333"/>
<path opacity="0.1" d="M284.456 386.791C304.387 411.149 317.733 445.778 324.099 488.281C337.185 575.65 275.681 621.389 199.783 621.389C143.24 621.389 94.689 596.003 79.0122 546.933C102.229 571.157 137.846 583.562 177.369 583.562C253.267 583.562 314.771 537.824 301.685 450.455C298.114 426.616 292.348 405.253 284.456 386.791Z" fill="#333333"/>
</g>
<defs>
<linearGradient id="paint0_linear_991_7032" x1="199" y1="-170" x2="199" y2="621" gradientUnits="userSpaceOnUse">
<stop stop-color="#D9D9D9" stop-opacity="0.8"/>
<stop offset="1" stop-color="#FFCE29"/>
</linearGradient>
<clipPath id="clip0_991_7032">
<rect width="398" height="683" fill="white"/>
</clipPath>
</defs>
</svg>
