<svg width="182" height="39" viewBox="0 0 182 39" fill="none" xmlns="http://www.w3.org/2000/svg">
<g clip-path="url(#clip0_1318_4923)">
<mask id="path-1-outside-1_1318_4923" maskUnits="userSpaceOnUse" x="56" y="6" width="40" height="26" fill="black">
<rect fill="white" x="56" y="6" width="40" height="26"/>
<path d="M61.6562 28.293C60.0742 28.293 59.1719 27.3555 59.1719 25.6914V13.6914C59.1719 12.0273 60.0742 11.0898 61.6562 11.0898H66.8945C70.6562 11.0898 73.1875 13.4922 73.1875 17.2539C73.1875 20.9805 70.5039 23.3828 66.5547 23.3828H64.1406V25.6914C64.1406 27.3555 63.2383 28.293 61.6562 28.293ZM64.1406 19.7148H65.5352C67.1875 19.7148 68.1719 18.8828 68.1719 17.2656C68.1719 15.6602 67.1875 14.8281 65.5703 14.8281H64.1406V19.7148ZM77.0781 13.9961C75.7188 13.9961 74.6875 13.0117 74.6875 11.7227C74.6875 10.4336 75.7188 9.44922 77.0781 9.44922C78.4375 9.44922 79.4688 10.4336 79.4688 11.7227C79.4688 13.0117 78.4375 13.9961 77.0781 13.9961ZM77.0781 28.293C75.5547 28.293 74.6758 27.3906 74.6758 25.8086V17.2539C74.6758 15.6719 75.5547 14.7695 77.0781 14.7695C78.6016 14.7695 79.4805 15.6836 79.4805 17.2656V25.8086C79.4805 27.3906 78.6016 28.293 77.0781 28.293ZM83.7461 28.293C82.3398 28.293 81.3438 27.5078 81.3438 25.8086V13.2812C81.3438 11.582 82.3398 10.7969 83.7461 10.7969C85.1523 10.7969 86.1484 11.582 86.1484 13.293V25.8086C86.1484 27.5078 85.1523 28.293 83.7461 28.293ZM90.4727 28.293C89.0664 28.293 88.0703 27.5078 88.0703 25.8086V13.2812C88.0703 11.582 89.0664 10.7969 90.4727 10.7969C91.8789 10.7969 92.875 11.582 92.875 13.293V25.8086C92.875 27.5078 91.8789 28.293 90.4727 28.293Z"/>
</mask>
<path d="M61.6562 28.293C60.0742 28.293 59.1719 27.3555 59.1719 25.6914V13.6914C59.1719 12.0273 60.0742 11.0898 61.6562 11.0898H66.8945C70.6562 11.0898 73.1875 13.4922 73.1875 17.2539C73.1875 20.9805 70.5039 23.3828 66.5547 23.3828H64.1406V25.6914C64.1406 27.3555 63.2383 28.293 61.6562 28.293ZM64.1406 19.7148H65.5352C67.1875 19.7148 68.1719 18.8828 68.1719 17.2656C68.1719 15.6602 67.1875 14.8281 65.5703 14.8281H64.1406V19.7148ZM77.0781 13.9961C75.7188 13.9961 74.6875 13.0117 74.6875 11.7227C74.6875 10.4336 75.7188 9.44922 77.0781 9.44922C78.4375 9.44922 79.4688 10.4336 79.4688 11.7227C79.4688 13.0117 78.4375 13.9961 77.0781 13.9961ZM77.0781 28.293C75.5547 28.293 74.6758 27.3906 74.6758 25.8086V17.2539C74.6758 15.6719 75.5547 14.7695 77.0781 14.7695C78.6016 14.7695 79.4805 15.6836 79.4805 17.2656V25.8086C79.4805 27.3906 78.6016 28.293 77.0781 28.293ZM83.7461 28.293C82.3398 28.293 81.3438 27.5078 81.3438 25.8086V13.2812C81.3438 11.582 82.3398 10.7969 83.7461 10.7969C85.1523 10.7969 86.1484 11.582 86.1484 13.293V25.8086C86.1484 27.5078 85.1523 28.293 83.7461 28.293ZM90.4727 28.293C89.0664 28.293 88.0703 27.5078 88.0703 25.8086V13.2812C88.0703 11.582 89.0664 10.7969 90.4727 10.7969C91.8789 10.7969 92.875 11.582 92.875 13.293V25.8086C92.875 27.5078 91.8789 28.293 90.4727 28.293Z" fill="white"/>
<path d="M64.1406 23.3828V20.3828H61.1406V23.3828H64.1406ZM64.1406 19.7148H61.1406V22.7148H64.1406V19.7148ZM64.1406 14.8281V11.8281H61.1406V14.8281H64.1406ZM61.6562 25.293C61.5534 25.293 61.5624 25.2775 61.6439 25.3077C61.7351 25.3416 61.8663 25.4146 61.9883 25.5421C62.2501 25.8157 62.1719 26.0005 62.1719 25.6914H56.1719C56.1719 27.0463 56.5448 28.532 57.6533 29.6904C58.7802 30.8679 60.2697 31.293 61.6562 31.293V25.293ZM62.1719 25.6914V13.6914H56.1719V25.6914H62.1719ZM62.1719 13.6914C62.1719 13.3823 62.2501 13.5671 61.9883 13.8408C61.8663 13.9683 61.7351 14.0413 61.6439 14.0751C61.5624 14.1053 61.5534 14.0898 61.6562 14.0898V8.08984C60.2697 8.08984 58.7802 8.51491 57.6533 9.69244C56.5448 10.8508 56.1719 12.3365 56.1719 13.6914H62.1719ZM61.6562 14.0898H66.8945V8.08984H61.6562V14.0898ZM66.8945 14.0898C68.1311 14.0898 68.9094 14.4743 69.362 14.9138C69.8045 15.3433 70.1875 16.0676 70.1875 17.2539H76.1875C76.1875 14.6785 75.3049 12.3207 73.5413 10.6087C71.7879 8.90653 69.4197 8.08984 66.8945 8.08984V14.0898ZM70.1875 17.2539C70.1875 18.3589 69.8112 19.059 69.326 19.5033C68.8144 19.9718 67.9265 20.3828 66.5547 20.3828V26.3828C69.1321 26.3828 71.5606 25.5926 73.3781 23.9283C75.222 22.2398 76.1875 19.8755 76.1875 17.2539H70.1875ZM66.5547 20.3828H64.1406V26.3828H66.5547V20.3828ZM61.1406 23.3828V25.6914H67.1406V23.3828H61.1406ZM61.1406 25.6914C61.1406 26.0005 61.0624 25.8157 61.3242 25.5421C61.4462 25.4146 61.5774 25.3416 61.6686 25.3077C61.7501 25.2775 61.7591 25.293 61.6562 25.293V31.293C63.0428 31.293 64.5323 30.8679 65.6592 29.6904C66.7677 28.532 67.1406 27.0463 67.1406 25.6914H61.1406ZM64.1406 22.7148H65.5352V16.7148H64.1406V22.7148ZM65.5352 22.7148C66.8283 22.7148 68.3072 22.3894 69.4876 21.3198C70.7159 20.2067 71.1719 18.6983 71.1719 17.2656H65.1719C65.1719 17.3691 65.1559 17.3474 65.1942 17.2486C65.2368 17.1382 65.3225 16.997 65.4587 16.8736C65.7339 16.6243 65.8944 16.7148 65.5352 16.7148V22.7148ZM71.1719 17.2656C71.1719 15.8333 70.7129 14.3349 69.4988 13.228C68.3287 12.1611 66.8608 11.8281 65.5703 11.8281V17.8281C65.897 17.8281 65.7299 17.9111 65.4563 17.6617C65.3219 17.5392 65.2374 17.3997 65.195 17.2902C65.1568 17.1914 65.1719 17.1678 65.1719 17.2656H71.1719ZM65.5703 11.8281H64.1406V17.8281H65.5703V11.8281ZM61.1406 14.8281V19.7148H67.1406V14.8281H61.1406ZM77.0781 10.9961C77.1335 10.9961 77.2867 11.0225 77.4416 11.17C77.6023 11.323 77.6875 11.5372 77.6875 11.7227H71.6875C71.6875 14.8058 74.2025 16.9961 77.0781 16.9961V10.9961ZM77.6875 11.7227C77.6875 11.9081 77.6023 12.1223 77.4416 12.2753C77.2867 12.4228 77.1335 12.4492 77.0781 12.4492V6.44922C74.2025 6.44922 71.6875 8.63955 71.6875 11.7227H77.6875ZM77.0781 12.4492C77.0227 12.4492 76.8695 12.4228 76.7146 12.2753C76.5539 12.1223 76.4688 11.9081 76.4688 11.7227H82.4688C82.4688 8.63955 79.9538 6.44922 77.0781 6.44922V12.4492ZM76.4688 11.7227C76.4688 11.5372 76.5539 11.323 76.7146 11.17C76.8695 11.0225 77.0227 10.9961 77.0781 10.9961V16.9961C79.9538 16.9961 82.4688 14.8058 82.4688 11.7227H76.4688ZM77.0781 25.293C76.99 25.293 77.0089 25.2797 77.0974 25.3123C77.1949 25.3483 77.332 25.4242 77.4603 25.5565C77.7379 25.8431 77.6758 26.0582 77.6758 25.8086H71.6758C71.6758 27.141 72.0531 28.5983 73.1511 29.7315C74.2619 30.8781 75.7223 31.293 77.0781 31.293V25.293ZM77.6758 25.8086V17.2539H71.6758V25.8086H77.6758ZM77.6758 17.2539C77.6758 17.0043 77.7379 17.2194 77.4603 17.506C77.332 17.6383 77.1949 17.7142 77.0974 17.7502C77.0089 17.7828 76.99 17.7695 77.0781 17.7695V11.7695C75.7223 11.7695 74.2619 12.1844 73.1511 13.331C72.0531 14.4642 71.6758 15.9215 71.6758 17.2539H77.6758ZM77.0781 17.7695C77.1621 17.7695 77.1401 17.7823 77.0497 17.7486C76.9504 17.7117 76.8146 17.6351 76.6888 17.5044C76.4179 17.2228 76.4805 17.0156 76.4805 17.2656H82.4805C82.4805 15.9337 82.1036 14.4784 81.0124 13.3442C79.9056 12.1939 78.4448 11.7695 77.0781 11.7695V17.7695ZM76.4805 17.2656V25.8086H82.4805V17.2656H76.4805ZM76.4805 25.8086C76.4805 26.0582 76.4184 25.8431 76.696 25.5565C76.8242 25.4242 76.9613 25.3483 77.0588 25.3123C77.1474 25.2797 77.1663 25.293 77.0781 25.293V31.293C78.434 31.293 79.8944 30.8781 81.0052 29.7315C82.1031 28.5983 82.4805 27.141 82.4805 25.8086H76.4805ZM83.7461 25.293C83.5814 25.293 83.8131 25.2525 84.0975 25.5261C84.2316 25.6551 84.3042 25.7892 84.3358 25.8749C84.3638 25.9508 84.3438 25.9438 84.3438 25.8086H78.3438C78.3438 27.2497 78.7809 28.737 79.9377 29.8499C81.0716 30.9409 82.5045 31.293 83.7461 31.293V25.293ZM84.3438 25.8086V13.2812H78.3438V25.8086H84.3438ZM84.3438 13.2812C84.3438 13.146 84.3638 13.139 84.3358 13.2149C84.3042 13.3006 84.2316 13.4348 84.0975 13.5638C83.8131 13.8374 83.5814 13.7969 83.7461 13.7969V7.79688C82.5045 7.79688 81.0716 8.14895 79.9377 9.23993C78.7809 10.3528 78.3438 11.8401 78.3438 13.2812H84.3438ZM83.7461 13.7969C83.9106 13.7969 83.6763 13.8372 83.3908 13.5615C83.2566 13.4319 83.1851 13.2982 83.1546 13.2151C83.1277 13.1418 83.1484 13.1526 83.1484 13.293H89.1484C89.1484 11.8517 88.7147 10.3615 87.5584 9.24512C86.4233 8.14918 84.9879 7.79688 83.7461 7.79688V13.7969ZM83.1484 13.293V25.8086H89.1484V13.293H83.1484ZM83.1484 25.8086C83.1484 25.9438 83.1284 25.9508 83.1564 25.8749C83.188 25.7892 83.2606 25.6551 83.3947 25.5261C83.6791 25.2525 83.9108 25.293 83.7461 25.293V31.293C84.9877 31.293 86.4205 30.9409 87.5545 29.8499C88.7113 28.737 89.1484 27.2497 89.1484 25.8086H83.1484ZM90.4727 25.293C90.308 25.293 90.5397 25.2525 90.8241 25.5261C90.9582 25.6551 91.0307 25.7892 91.0624 25.8749C91.0904 25.9508 91.0703 25.9438 91.0703 25.8086H85.0703C85.0703 27.2497 85.5075 28.737 86.6642 29.8499C87.7982 30.9409 89.2311 31.293 90.4727 31.293V25.293ZM91.0703 25.8086V13.2812H85.0703V25.8086H91.0703ZM91.0703 13.2812C91.0703 13.146 91.0904 13.139 91.0624 13.2149C91.0307 13.3006 90.9582 13.4348 90.8241 13.5638C90.5397 13.8374 90.308 13.7969 90.4727 13.7969V7.79688C89.2311 7.79688 87.7982 8.14895 86.6642 9.23993C85.5075 10.3528 85.0703 11.8401 85.0703 13.2812H91.0703ZM90.4727 13.7969C90.6371 13.7969 90.4029 13.8372 90.1174 13.5615C89.9832 13.4319 89.9117 13.2982 89.8812 13.2151C89.8543 13.1418 89.875 13.1526 89.875 13.293H95.875C95.875 11.8517 95.4413 10.3615 94.285 9.24512C93.1499 8.14918 91.7144 7.79688 90.4727 7.79688V13.7969ZM89.875 13.293V25.8086H95.875V13.293H89.875ZM89.875 25.8086C89.875 25.9438 89.8549 25.9508 89.8829 25.8749C89.9146 25.7892 89.9871 25.6551 90.1212 25.5261C90.4056 25.2525 90.6373 25.293 90.4727 25.293V31.293C91.7142 31.293 93.1471 30.9409 94.2811 29.8499C95.4378 28.737 95.875 27.2497 95.875 25.8086H89.875Z" fill="black" mask="url(#path-1-outside-1_1318_4923)"/>
<mask id="path-3-outside-2_1318_4923" maskUnits="userSpaceOnUse" x="100" y="7" width="82" height="29" fill="black">
<rect fill="white" x="100" y="7" width="82" height="29"/>
<path d="M106.227 28C104.645 28 103.742 27.0625 103.742 25.3984V13.6914C103.742 12.0273 104.645 11.0898 106.227 11.0898H112.051C115.508 11.0898 117.535 12.6719 117.535 15.3086C117.535 17.2539 116.059 18.7188 114.102 18.9648V19.0586C116.387 19.1172 118.297 20.8398 118.297 23.0781C118.297 26.043 115.953 28 112.332 28H106.227ZM108.711 17.8633H110.633C111.91 17.8633 112.707 17.1953 112.707 16.1758C112.707 15.1328 111.957 14.5 110.703 14.5H108.711V17.8633ZM108.711 24.5898H110.832C112.367 24.5898 113.246 23.8984 113.246 22.6211C113.246 21.4141 112.355 20.7109 110.867 20.7109H108.711V24.5898ZM124.426 28.2578C121.648 28.2578 119.609 26.4414 119.609 23.3594V17.2539C119.609 15.5547 120.605 14.7695 122.012 14.7695C123.418 14.7695 124.414 15.5547 124.414 17.2656V22.2812C124.414 23.6523 125.152 24.3789 126.277 24.3789C127.355 24.3789 128.059 23.5469 128.059 22.293V17.2539C128.059 15.5547 129.055 14.7695 130.461 14.7695C131.867 14.7695 132.863 15.5547 132.863 17.2656V25.8438C132.863 27.5312 131.902 28.293 130.52 28.293C129.137 28.293 128.176 27.5312 128.176 25.8555V25.457H128.082C127.566 27.2148 126.359 28.2578 124.426 28.2578ZM139.379 28.1875C136.191 28.1875 134.34 25.7148 134.34 21.4961C134.34 17.3359 136.238 14.875 139.461 14.875C141.348 14.875 142.754 15.9414 143.258 17.3945H143.352V13.2812C143.352 11.582 144.348 10.7969 145.754 10.7969C147.16 10.7969 148.156 11.582 148.156 13.293V25.8086C148.156 27.5078 147.16 28.293 145.754 28.293C144.348 28.293 143.352 27.5078 143.352 25.8086V25.7617H143.258C142.824 27.1211 141.324 28.1875 139.379 28.1875ZM141.312 24.4844C142.613 24.4844 143.375 23.4062 143.375 21.543C143.375 19.6914 142.602 18.5781 141.312 18.5781C140.023 18.5781 139.262 19.7031 139.262 21.5312C139.262 23.3828 140.012 24.4844 141.312 24.4844ZM154.684 28.1875C151.496 28.1875 149.645 25.7148 149.645 21.4961C149.645 17.3359 151.543 14.875 154.766 14.875C156.652 14.875 158.059 15.9414 158.562 17.3945H158.656V13.2812C158.656 11.582 159.652 10.7969 161.059 10.7969C162.465 10.7969 163.461 11.582 163.461 13.293V25.8086C163.461 27.5078 162.465 28.293 161.059 28.293C159.652 28.293 158.656 27.5078 158.656 25.8086V25.7617H158.562C158.129 27.1211 156.629 28.1875 154.684 28.1875ZM156.617 24.4844C157.918 24.4844 158.68 23.4062 158.68 21.543C158.68 19.6914 157.906 18.5781 156.617 18.5781C155.328 18.5781 154.566 19.7031 154.566 21.5312C154.566 23.3828 155.316 24.4844 156.617 24.4844ZM168.336 32.7461C166.332 32.7461 165.254 31.9727 165.254 30.5547C165.254 29.6172 165.91 29.0547 166.953 29.0547C167.117 29.0547 167.293 29.0664 167.457 29.0664C167.867 29.0664 168.43 29.0195 168.77 28.7383L168.828 28.6914L165.02 18.4844C164.832 17.9922 164.727 17.4297 164.727 17.0078C164.727 15.7305 165.816 14.7695 167.246 14.7695C168.559 14.7695 169.191 15.3203 169.578 16.7734L171.664 24.5547H171.758L173.844 16.7266C174.207 15.3789 174.934 14.7695 176.188 14.7695C177.559 14.7695 178.52 15.6602 178.52 16.9141C178.52 17.3242 178.402 17.9336 178.238 18.3906L175.027 27.5781C173.738 31.2695 171.828 32.7461 168.336 32.7461Z"/>
</mask>
<path d="M106.227 28C104.645 28 103.742 27.0625 103.742 25.3984V13.6914C103.742 12.0273 104.645 11.0898 106.227 11.0898H112.051C115.508 11.0898 117.535 12.6719 117.535 15.3086C117.535 17.2539 116.059 18.7188 114.102 18.9648V19.0586C116.387 19.1172 118.297 20.8398 118.297 23.0781C118.297 26.043 115.953 28 112.332 28H106.227ZM108.711 17.8633H110.633C111.91 17.8633 112.707 17.1953 112.707 16.1758C112.707 15.1328 111.957 14.5 110.703 14.5H108.711V17.8633ZM108.711 24.5898H110.832C112.367 24.5898 113.246 23.8984 113.246 22.6211C113.246 21.4141 112.355 20.7109 110.867 20.7109H108.711V24.5898ZM124.426 28.2578C121.648 28.2578 119.609 26.4414 119.609 23.3594V17.2539C119.609 15.5547 120.605 14.7695 122.012 14.7695C123.418 14.7695 124.414 15.5547 124.414 17.2656V22.2812C124.414 23.6523 125.152 24.3789 126.277 24.3789C127.355 24.3789 128.059 23.5469 128.059 22.293V17.2539C128.059 15.5547 129.055 14.7695 130.461 14.7695C131.867 14.7695 132.863 15.5547 132.863 17.2656V25.8438C132.863 27.5312 131.902 28.293 130.52 28.293C129.137 28.293 128.176 27.5312 128.176 25.8555V25.457H128.082C127.566 27.2148 126.359 28.2578 124.426 28.2578ZM139.379 28.1875C136.191 28.1875 134.34 25.7148 134.34 21.4961C134.34 17.3359 136.238 14.875 139.461 14.875C141.348 14.875 142.754 15.9414 143.258 17.3945H143.352V13.2812C143.352 11.582 144.348 10.7969 145.754 10.7969C147.16 10.7969 148.156 11.582 148.156 13.293V25.8086C148.156 27.5078 147.16 28.293 145.754 28.293C144.348 28.293 143.352 27.5078 143.352 25.8086V25.7617H143.258C142.824 27.1211 141.324 28.1875 139.379 28.1875ZM141.312 24.4844C142.613 24.4844 143.375 23.4062 143.375 21.543C143.375 19.6914 142.602 18.5781 141.312 18.5781C140.023 18.5781 139.262 19.7031 139.262 21.5312C139.262 23.3828 140.012 24.4844 141.312 24.4844ZM154.684 28.1875C151.496 28.1875 149.645 25.7148 149.645 21.4961C149.645 17.3359 151.543 14.875 154.766 14.875C156.652 14.875 158.059 15.9414 158.562 17.3945H158.656V13.2812C158.656 11.582 159.652 10.7969 161.059 10.7969C162.465 10.7969 163.461 11.582 163.461 13.293V25.8086C163.461 27.5078 162.465 28.293 161.059 28.293C159.652 28.293 158.656 27.5078 158.656 25.8086V25.7617H158.562C158.129 27.1211 156.629 28.1875 154.684 28.1875ZM156.617 24.4844C157.918 24.4844 158.68 23.4062 158.68 21.543C158.68 19.6914 157.906 18.5781 156.617 18.5781C155.328 18.5781 154.566 19.7031 154.566 21.5312C154.566 23.3828 155.316 24.4844 156.617 24.4844ZM168.336 32.7461C166.332 32.7461 165.254 31.9727 165.254 30.5547C165.254 29.6172 165.91 29.0547 166.953 29.0547C167.117 29.0547 167.293 29.0664 167.457 29.0664C167.867 29.0664 168.43 29.0195 168.77 28.7383L168.828 28.6914L165.02 18.4844C164.832 17.9922 164.727 17.4297 164.727 17.0078C164.727 15.7305 165.816 14.7695 167.246 14.7695C168.559 14.7695 169.191 15.3203 169.578 16.7734L171.664 24.5547H171.758L173.844 16.7266C174.207 15.3789 174.934 14.7695 176.188 14.7695C177.559 14.7695 178.52 15.6602 178.52 16.9141C178.52 17.3242 178.402 17.9336 178.238 18.3906L175.027 27.5781C173.738 31.2695 171.828 32.7461 168.336 32.7461Z" fill="white"/>
<path d="M114.102 18.9648L113.727 15.9883L111.102 16.3185V18.9648H114.102ZM114.102 19.0586H111.102V21.9827L114.025 22.0576L114.102 19.0586ZM108.711 17.8633H105.711V20.8633H108.711V17.8633ZM108.711 14.5V11.5H105.711V14.5H108.711ZM108.711 24.5898H105.711V27.5898H108.711V24.5898ZM108.711 20.7109V17.7109H105.711V20.7109H108.711ZM106.227 25C106.124 25 106.133 24.9845 106.214 25.0148C106.305 25.0486 106.437 25.1216 106.559 25.2491C106.82 25.5227 106.742 25.7076 106.742 25.3984H100.742C100.742 26.7534 101.115 28.239 102.224 29.3974C103.351 30.5749 104.84 31 106.227 31V25ZM106.742 25.3984V13.6914H100.742V25.3984H106.742ZM106.742 13.6914C106.742 13.3823 106.82 13.5671 106.559 13.8408C106.437 13.9683 106.305 14.0413 106.214 14.0751C106.133 14.1053 106.124 14.0898 106.227 14.0898V8.08984C104.84 8.08984 103.351 8.51491 102.224 9.69244C101.115 10.8508 100.742 12.3365 100.742 13.6914H106.742ZM106.227 14.0898H112.051V8.08984H106.227V14.0898ZM112.051 14.0898C113.369 14.0898 114.013 14.3971 114.256 14.5849C114.4 14.6962 114.535 14.8422 114.535 15.3086H120.535C120.535 13.1383 119.657 11.1749 117.923 9.83602C116.288 8.57363 114.189 8.08984 112.051 8.08984V14.0898ZM114.535 15.3086C114.535 15.487 114.479 15.6011 114.387 15.6977C114.28 15.8086 114.069 15.9453 113.727 15.9883L114.476 21.9414C117.708 21.5349 120.535 18.9822 120.535 15.3086H114.535ZM111.102 18.9648V19.0586H117.102V18.9648H111.102ZM114.025 22.0576C114.438 22.0682 114.781 22.2292 115.001 22.4363C115.209 22.6324 115.297 22.8505 115.297 23.0781H121.297C121.297 18.9756 117.842 16.1535 114.178 16.0596L114.025 22.0576ZM115.297 23.0781C115.297 23.704 115.081 24.0734 114.759 24.3401C114.383 24.6512 113.625 25 112.332 25V31C114.66 31 116.884 30.3703 118.586 28.9617C120.341 27.5086 121.297 25.4171 121.297 23.0781H115.297ZM112.332 25H106.227V31H112.332V25ZM108.711 20.8633H110.633V14.8633H108.711V20.8633ZM110.633 20.8633C111.767 20.8633 113.021 20.5669 114.052 19.7212C115.143 18.8262 115.707 17.5343 115.707 16.1758H109.707C109.707 16.0347 109.736 15.8357 109.837 15.6169C109.938 15.3959 110.086 15.2142 110.246 15.0825C110.559 14.8257 110.776 14.8633 110.633 14.8633V20.8633ZM115.707 16.1758C115.707 14.8805 115.209 13.5754 114.103 12.6477C113.063 11.776 111.801 11.5 110.703 11.5V17.5C110.859 17.5 110.599 17.5404 110.248 17.2458C110.068 17.095 109.918 16.8969 109.821 16.674C109.726 16.4571 109.707 16.2767 109.707 16.1758H115.707ZM110.703 11.5H108.711V17.5H110.703V11.5ZM105.711 14.5V17.8633H111.711V14.5H105.711ZM108.711 27.5898H110.832V21.5898H108.711V27.5898ZM110.832 27.5898C111.996 27.5898 113.366 27.3343 114.5 26.4181C115.733 25.4217 116.246 24.0045 116.246 22.6211H110.246C110.246 22.5965 110.251 22.4614 110.334 22.2704C110.422 22.0689 110.562 21.8861 110.73 21.7508C111.04 21.4997 111.204 21.5898 110.832 21.5898V27.5898ZM116.246 22.6211C116.246 21.2099 115.686 19.8279 114.488 18.87C113.379 17.9835 112.039 17.7109 110.867 17.7109V23.7109C111.183 23.7109 111.033 23.7899 110.742 23.5568C110.586 23.4324 110.445 23.258 110.351 23.0513C110.26 22.8509 110.246 22.6913 110.246 22.6211H116.246ZM110.867 17.7109H108.711V23.7109H110.867V17.7109ZM105.711 20.7109V24.5898H111.711V20.7109H105.711ZM128.176 25.457H131.176V22.457H128.176V25.457ZM128.082 25.457V22.457H125.836L125.203 24.6126L128.082 25.457ZM124.426 25.2578C123.696 25.2578 123.287 25.0287 123.075 24.8212C122.876 24.6263 122.609 24.2162 122.609 23.3594H116.609C116.609 25.5845 117.362 27.6237 118.877 29.1075C120.379 30.5787 122.379 31.2578 124.426 31.2578V25.2578ZM122.609 23.3594V17.2539H116.609V23.3594H122.609ZM122.609 17.2539C122.609 17.1187 122.629 17.1117 122.601 17.1876C122.57 17.2733 122.497 17.4074 122.363 17.5364C122.079 17.81 121.847 17.7695 122.012 17.7695V11.7695C120.77 11.7695 119.337 12.1216 118.203 13.2126C117.047 14.3255 116.609 15.8128 116.609 17.2539H122.609ZM122.012 17.7695C122.176 17.7695 121.942 17.8098 121.656 17.5342C121.522 17.4046 121.451 17.2709 121.42 17.1877C121.393 17.1145 121.414 17.1252 121.414 17.2656H127.414C127.414 15.8244 126.98 14.3342 125.824 13.2178C124.689 12.1218 123.253 11.7695 122.012 11.7695V17.7695ZM121.414 17.2656V22.2812H127.414V17.2656H121.414ZM121.414 22.2812C121.414 23.4863 121.743 24.8192 122.717 25.8768C123.718 26.9636 125.05 27.3789 126.277 27.3789V21.3789C126.38 21.3789 126.78 21.431 127.13 21.8117C127.454 22.1632 127.414 22.4473 127.414 22.2812H121.414ZM126.277 27.3789C127.647 27.3789 128.945 26.8217 129.856 25.751C130.729 24.7265 131.059 23.4621 131.059 22.293H125.059C125.059 22.3777 125.037 22.1563 125.288 21.8613C125.414 21.7129 125.583 21.5815 125.782 21.4922C125.98 21.4036 126.156 21.3789 126.277 21.3789V27.3789ZM131.059 22.293V17.2539H125.059V22.293H131.059ZM131.059 17.2539C131.059 17.1187 131.079 17.1117 131.051 17.1876C131.019 17.2733 130.946 17.4074 130.812 17.5364C130.528 17.81 130.296 17.7695 130.461 17.7695V11.7695C129.219 11.7695 127.786 12.1216 126.652 13.2126C125.496 14.3255 125.059 15.8128 125.059 17.2539H131.059ZM130.461 17.7695C130.625 17.7695 130.391 17.8098 130.106 17.5342C129.971 17.4046 129.9 17.2709 129.869 17.1877C129.843 17.1145 129.863 17.1252 129.863 17.2656H135.863C135.863 15.8244 135.43 14.3342 134.273 13.2178C133.138 12.1218 131.703 11.7695 130.461 11.7695V17.7695ZM129.863 17.2656V25.8438H135.863V17.2656H129.863ZM129.863 25.8438C129.863 25.9854 129.843 25.9944 129.87 25.9177C129.902 25.8304 129.977 25.6881 130.119 25.5496C130.424 25.254 130.681 25.293 130.52 25.293V31.293C131.741 31.293 133.17 30.9511 134.301 29.8528C135.449 28.737 135.863 27.2549 135.863 25.8438H129.863ZM130.52 25.293C130.358 25.293 130.613 25.2537 130.916 25.5472C131.058 25.6852 131.134 25.8279 131.167 25.9178C131.196 25.9973 131.176 25.992 131.176 25.8555H125.176C125.176 27.2665 125.593 28.7458 126.742 29.8581C127.872 30.9513 129.299 31.293 130.52 31.293V25.293ZM131.176 25.8555V25.457H125.176V25.8555H131.176ZM128.176 22.457H128.082V28.457H128.176V22.457ZM125.203 24.6126C125.078 25.0414 124.938 25.1528 124.925 25.163C124.914 25.1724 124.889 25.1901 124.83 25.2089C124.766 25.2292 124.639 25.2578 124.426 25.2578V31.2578C125.954 31.2578 127.425 30.835 128.646 29.8702C129.849 28.9195 130.571 27.6304 130.961 26.3015L125.203 24.6126ZM143.258 17.3945L140.423 18.3774L141.123 20.3945H143.258V17.3945ZM143.352 17.3945V20.3945H146.352V17.3945H143.352ZM143.352 25.7617H146.352V22.7617H143.352V25.7617ZM143.258 25.7617V22.7617H141.066L140.4 24.8501L143.258 25.7617ZM139.379 25.1875C138.653 25.1875 138.313 24.9548 138.062 24.6209C137.725 24.1735 137.34 23.2206 137.34 21.4961H131.34C131.34 23.9904 131.88 26.3832 133.266 28.2268C134.738 30.1839 136.917 31.1875 139.379 31.1875V25.1875ZM137.34 21.4961C137.34 19.8237 137.727 18.8979 138.066 18.4601C138.326 18.123 138.696 17.875 139.461 17.875V11.875C137.003 11.875 134.813 12.8575 133.318 14.7909C131.902 16.6235 131.34 19.0084 131.34 21.4961H137.34ZM139.461 17.875C139.829 17.875 140.052 17.9747 140.176 18.06C140.304 18.1484 140.382 18.2591 140.423 18.3774L146.092 16.4116C145.146 13.6819 142.551 11.875 139.461 11.875V17.875ZM143.258 20.3945H143.352V14.3945H143.258V20.3945ZM146.352 17.3945V13.2812H140.352V17.3945H146.352ZM146.352 13.2812C146.352 13.146 146.372 13.139 146.344 13.2149C146.312 13.3006 146.239 13.4348 146.105 13.5638C145.821 13.8374 145.589 13.7969 145.754 13.7969V7.79688C144.512 7.79688 143.079 8.14895 141.945 9.23993C140.789 10.3528 140.352 11.8401 140.352 13.2812H146.352ZM145.754 13.7969C145.918 13.7969 145.684 13.8372 145.399 13.5615C145.264 13.4319 145.193 13.2982 145.162 13.2151C145.136 13.1418 145.156 13.1526 145.156 13.293H151.156C151.156 11.8517 150.723 10.3615 149.566 9.24512C148.431 8.14918 146.996 7.79688 145.754 7.79688V13.7969ZM145.156 13.293V25.8086H151.156V13.293H145.156ZM145.156 25.8086C145.156 25.9438 145.136 25.9508 145.164 25.8749C145.196 25.7892 145.268 25.6551 145.402 25.5261C145.687 25.2525 145.919 25.293 145.754 25.293V31.293C146.995 31.293 148.428 30.9409 149.562 29.8499C150.719 28.737 151.156 27.2497 151.156 25.8086H145.156ZM145.754 25.293C145.589 25.293 145.821 25.2525 146.105 25.5261C146.239 25.6551 146.312 25.7892 146.344 25.8749C146.372 25.9508 146.352 25.9438 146.352 25.8086H140.352C140.352 27.2497 140.789 28.737 141.945 29.8499C143.079 30.9409 144.512 31.293 145.754 31.293V25.293ZM146.352 25.8086V25.7617H140.352V25.8086H146.352ZM143.352 22.7617H143.258V28.7617H143.352V22.7617ZM140.4 24.8501C140.42 24.7872 140.42 24.8591 140.252 24.9682C140.092 25.072 139.804 25.1875 139.379 25.1875V31.1875C142.346 31.1875 145.206 29.5271 146.116 26.6734L140.4 24.8501ZM141.312 27.4844C142.913 27.4844 144.356 26.7612 145.286 25.4371C146.123 24.2467 146.375 22.8226 146.375 21.543H140.375C140.375 21.8106 140.347 21.9747 140.327 22.0538C140.307 22.1333 140.304 22.0907 140.377 21.9877C140.457 21.8739 140.601 21.7265 140.817 21.6163C141.03 21.5072 141.215 21.4844 141.312 21.4844V27.4844ZM146.375 21.543C146.375 20.2558 146.114 18.8387 145.29 17.6534C144.38 16.3449 142.949 15.5781 141.312 15.5781V21.5781C141.192 21.5781 140.997 21.5491 140.784 21.4369C140.571 21.3253 140.435 21.1811 140.364 21.079C140.3 20.9862 140.305 20.9537 140.326 21.0372C140.347 21.1198 140.375 21.2833 140.375 21.543H146.375ZM141.312 15.5781C139.663 15.5781 138.235 16.3598 137.334 17.6659C136.519 18.848 136.262 20.2571 136.262 21.5312H142.262C142.262 21.277 142.289 21.1156 142.31 21.0331C142.331 20.9495 142.337 20.9807 142.273 21.0723C142.204 21.1732 142.069 21.3189 141.854 21.4327C141.638 21.5475 141.438 21.5781 141.312 21.5781V15.5781ZM136.262 21.5312C136.262 22.8008 136.509 24.218 137.331 25.4072C138.246 26.7324 139.686 27.4844 141.312 27.4844V21.4844C141.42 21.4844 141.614 21.5101 141.832 21.6239C142.05 21.7379 142.192 21.8876 142.268 21.9971C142.336 22.096 142.331 22.1329 142.31 22.0483C142.289 21.9645 142.262 21.7977 142.262 21.5312H136.262ZM158.562 17.3945L155.728 18.3774L156.428 20.3945H158.562V17.3945ZM158.656 17.3945V20.3945H161.656V17.3945H158.656ZM158.656 25.7617H161.656V22.7617H158.656V25.7617ZM158.562 25.7617V22.7617H156.37L155.704 24.8501L158.562 25.7617ZM154.684 25.1875C153.958 25.1875 153.618 24.9548 153.367 24.6209C153.03 24.1735 152.645 23.2206 152.645 21.4961H146.645C146.645 23.9904 147.185 26.3832 148.571 28.2268C150.043 30.1839 152.222 31.1875 154.684 31.1875V25.1875ZM152.645 21.4961C152.645 19.8237 153.032 18.8979 153.37 18.4601C153.631 18.123 154 17.875 154.766 17.875V11.875C152.308 11.875 150.117 12.8575 148.623 14.7909C147.206 16.6235 146.645 19.0084 146.645 21.4961H152.645ZM154.766 17.875C155.133 17.875 155.356 17.9747 155.48 18.06C155.608 18.1484 155.687 18.2591 155.728 18.3774L161.397 16.4116C160.45 13.6819 157.856 11.875 154.766 11.875V17.875ZM158.562 20.3945H158.656V14.3945H158.562V20.3945ZM161.656 17.3945V13.2812H155.656V17.3945H161.656ZM161.656 13.2812C161.656 13.146 161.676 13.139 161.648 13.2149C161.617 13.3006 161.544 13.4348 161.41 13.5638C161.126 13.8374 160.894 13.7969 161.059 13.7969V7.79688C159.817 7.79688 158.384 8.14895 157.25 9.23993C156.093 10.3528 155.656 11.8401 155.656 13.2812H161.656ZM161.059 13.7969C161.223 13.7969 160.989 13.8372 160.703 13.5615C160.569 13.4319 160.498 13.2982 160.467 13.2151C160.44 13.1418 160.461 13.1526 160.461 13.293H166.461C166.461 11.8517 166.027 10.3615 164.871 9.24512C163.736 8.14918 162.3 7.79688 161.059 7.79688V13.7969ZM160.461 13.293V25.8086H166.461V13.293H160.461ZM160.461 25.8086C160.461 25.9438 160.441 25.9508 160.469 25.8749C160.501 25.7892 160.573 25.6551 160.707 25.5261C160.992 25.2525 161.223 25.293 161.059 25.293V31.293C162.3 31.293 163.733 30.9409 164.867 29.8499C166.024 28.737 166.461 27.2497 166.461 25.8086H160.461ZM161.059 25.293C160.894 25.293 161.126 25.2525 161.41 25.5261C161.544 25.6551 161.617 25.7892 161.648 25.8749C161.676 25.9508 161.656 25.9438 161.656 25.8086H155.656C155.656 27.2497 156.093 28.737 157.25 29.8499C158.384 30.9409 159.817 31.293 161.059 31.293V25.293ZM161.656 25.8086V25.7617H155.656V25.8086H161.656ZM158.656 22.7617H158.562V28.7617H158.656V22.7617ZM155.704 24.8501C155.724 24.7872 155.724 24.8591 155.556 24.9682C155.396 25.072 155.108 25.1875 154.684 25.1875V31.1875C157.651 31.1875 160.51 29.5271 161.421 26.6734L155.704 24.8501ZM156.617 27.4844C158.217 27.4844 159.661 26.7612 160.591 25.4371C161.427 24.2467 161.68 22.8226 161.68 21.543H155.68C155.68 21.8106 155.652 21.9747 155.632 22.0538C155.612 22.1333 155.609 22.0907 155.682 21.9877C155.762 21.8739 155.906 21.7265 156.121 21.6163C156.335 21.5072 156.52 21.4844 156.617 21.4844V27.4844ZM161.68 21.543C161.68 20.2558 161.419 18.8387 160.595 17.6534C159.685 16.3449 158.253 15.5781 156.617 15.5781V21.5781C156.497 21.5781 156.302 21.5491 156.088 21.4369C155.876 21.3253 155.74 21.1811 155.669 21.079C155.604 20.9862 155.61 20.9537 155.631 21.0372C155.652 21.1198 155.68 21.2833 155.68 21.543H161.68ZM156.617 15.5781C154.968 15.5781 153.54 16.3598 152.639 17.6659C151.824 18.848 151.566 20.2571 151.566 21.5312H157.566C157.566 21.277 157.593 21.1156 157.614 21.0331C157.635 20.9495 157.641 20.9807 157.578 21.0723C157.509 21.1732 157.373 21.3189 157.159 21.4327C156.942 21.5475 156.743 21.5781 156.617 21.5781V15.5781ZM151.566 21.5312C151.566 22.8008 151.814 24.218 152.636 25.4072C153.551 26.7324 154.99 27.4844 156.617 27.4844V21.4844C156.725 21.4844 156.918 21.5101 157.136 21.6239C157.355 21.7379 157.497 21.8876 157.572 21.9971C157.641 22.096 157.636 22.1329 157.615 22.0483C157.594 21.9645 157.566 21.7977 157.566 21.5312H151.566ZM168.77 28.7383L166.895 26.3957L166.876 26.4112L166.857 26.4271L168.77 28.7383ZM168.828 28.6914L170.702 31.034L172.398 29.6773L171.639 27.6426L168.828 28.6914ZM165.02 18.4844L167.83 17.4356L167.827 17.426L167.823 17.4164L165.02 18.4844ZM169.578 16.7734L166.679 17.545L166.68 17.5502L169.578 16.7734ZM171.664 24.5547L168.766 25.3315L169.362 27.5547H171.664V24.5547ZM171.758 24.5547V27.5547H174.063L174.657 25.3271L171.758 24.5547ZM173.844 16.7266L170.947 15.9457L170.945 15.9541L173.844 16.7266ZM178.238 18.3906L175.415 17.377L175.41 17.3889L175.406 17.4009L178.238 18.3906ZM175.027 27.5781L172.195 26.5884L172.195 26.5891L175.027 27.5781ZM168.336 29.7461C168.02 29.7461 167.826 29.7149 167.729 29.6908C167.632 29.6669 167.676 29.6615 167.785 29.7391C167.908 29.8268 168.051 29.9767 168.151 30.1821C168.247 30.3789 168.254 30.5255 168.254 30.5547H162.254C162.254 32.1292 162.911 33.6336 164.302 34.6252C165.536 35.5045 167.021 35.7461 168.336 35.7461V29.7461ZM168.254 30.5547C168.254 30.8295 168.131 31.3231 167.689 31.7102C167.497 31.8782 167.308 31.9673 167.171 32.0115C167.039 32.0543 166.958 32.0547 166.953 32.0547V26.0547C165.916 26.0547 164.718 26.3364 163.736 27.1961C162.705 28.0988 162.254 29.3424 162.254 30.5547H168.254ZM166.953 32.0547C166.974 32.0547 167.007 32.0555 167.102 32.0588C167.177 32.0613 167.314 32.0664 167.457 32.0664V26.0664C167.436 26.0664 167.403 26.0656 167.308 26.0623C167.234 26.0597 167.096 26.0547 166.953 26.0547V32.0547ZM167.457 32.0664C167.757 32.0664 168.22 32.0511 168.728 31.9496C169.205 31.8541 169.976 31.6343 170.682 31.0495L166.857 26.4271C167.051 26.2662 167.228 26.1786 167.338 26.1334C167.449 26.0881 167.526 26.0712 167.551 26.0661C167.59 26.0582 167.567 26.0664 167.457 26.0664V32.0664ZM170.644 31.0809L170.702 31.034L166.954 26.3488L166.895 26.3957L170.644 31.0809ZM171.639 27.6426L167.83 17.4356L162.209 19.5331L166.017 29.7402L171.639 27.6426ZM167.823 17.4164C167.795 17.3433 167.767 17.2457 167.747 17.1444C167.726 17.037 167.727 16.987 167.727 17.0078H161.727C161.727 17.838 161.915 18.7621 162.216 19.5524L167.823 17.4164ZM167.727 17.0078C167.727 17.1218 167.701 17.2513 167.643 17.3766C167.586 17.4993 167.511 17.5917 167.44 17.6547C167.297 17.7815 167.201 17.7695 167.246 17.7695V11.7695C164.51 11.7695 161.727 13.7437 161.727 17.0078H167.727ZM167.246 17.7695C167.374 17.7695 167.356 17.7841 167.255 17.7538C167.132 17.7175 166.963 17.6384 166.801 17.4993C166.648 17.3672 166.584 17.2517 166.578 17.2404C166.578 17.2399 166.62 17.3216 166.679 17.545L172.477 16.0019C172.222 15.0413 171.759 13.8513 170.718 12.9539C169.607 11.9968 168.312 11.7695 167.246 11.7695V17.7695ZM166.68 17.5502L168.766 25.3315L174.562 23.7779L172.476 15.9966L166.68 17.5502ZM171.664 27.5547H171.758V21.5547H171.664V27.5547ZM174.657 25.3271L176.743 17.499L170.945 15.9541L168.859 23.7822L174.657 25.3271ZM176.74 17.5074C176.829 17.1798 176.86 17.3322 176.606 17.5445C176.479 17.6505 176.344 17.7161 176.238 17.7492C176.143 17.7789 176.114 17.7695 176.188 17.7695V11.7695C175.061 11.7695 173.819 12.0535 172.758 12.9409C171.736 13.7948 171.222 14.9256 170.947 15.9457L176.74 17.5074ZM176.188 17.7695C176.221 17.7695 176.047 17.7734 175.834 17.5775C175.605 17.3664 175.52 17.0914 175.52 16.9141H181.52C181.52 15.4828 180.953 14.1355 179.901 13.1657C178.865 12.211 177.525 11.7695 176.188 11.7695V17.7695ZM175.52 16.9141C175.52 16.8809 175.521 16.8823 175.517 16.9222C175.513 16.9587 175.506 17.01 175.494 17.0719C175.468 17.2051 175.436 17.3181 175.415 17.377L181.062 19.4042C181.319 18.6877 181.52 17.7332 181.52 16.9141H175.52ZM175.406 17.4009L172.195 26.5884L177.859 28.5679L181.07 19.3804L175.406 17.4009ZM172.195 26.5891C171.649 28.1538 171.107 28.8377 170.674 29.1722C170.285 29.4728 169.655 29.7461 168.336 29.7461V35.7461C170.509 35.7461 172.581 35.2811 174.342 33.9205C176.059 32.594 177.117 30.6939 177.86 28.5672L172.195 26.5891Z" fill="black" mask="url(#path-3-outside-2_1318_4923)"/>
<path d="M27.5941 1.70975H22.626C14.4763 1.70975 7.0514 6.39129 3.53831 13.7449C-1.52973 24.3532 6.20384 36.6186 17.9606 36.6186H32.2718C43.9596 36.6186 51.6865 24.4735 46.734 13.8868C43.2583 6.45686 35.7968 1.70975 27.5941 1.70975Z" fill="white" stroke="black" stroke-width="3.01312"/>
<circle cx="39.1198" cy="24.3303" r="3.59389" fill="#3ED848"/>
<circle cx="12.1657" cy="24.3303" r="3.59389" fill="#3ED848"/>
<path d="M35.7847 10.1751C36.5582 10.3824 37.3824 9.88578 37.1489 9.11975V9.11975C37.0019 8.63749 36.7242 8.17468 36.3366 7.76614C35.949 7.35759 35.4617 7.01394 34.9113 6.76105C34.3609 6.50815 33.7617 6.35259 33.1588 6.30606C32.5559 6.25953 31.965 6.32324 31.4306 6.49241C30.8962 6.66158 30.4321 6.9318 30.0733 7.28274C29.7145 7.63368 29.4703 8.0562 29.3591 8.51854V8.51854C29.1611 9.34152 30.0346 9.88173 30.8754 9.78386L32.7683 9.56354C33.1063 9.52419 33.4488 9.54922 33.7775 9.63731L35.7847 10.1751Z" fill="black"/>
<path d="M16.3999 10.1751C15.6263 10.3824 14.8022 9.88578 15.0357 9.11975V9.11975C15.1826 8.63749 15.4604 8.17468 15.848 7.76614C16.2355 7.35759 16.7229 7.01394 17.2733 6.76105C17.8237 6.50815 18.4229 6.35259 19.0258 6.30606C19.6286 6.25953 20.2195 6.32324 20.754 6.49241C21.2884 6.66158 21.7525 6.9318 22.1113 7.28274C22.4701 7.63368 22.7143 8.05621 22.8255 8.51854V8.51854C23.0235 9.34153 22.15 9.88173 21.3092 9.78387L19.4163 9.56354C19.0782 9.52419 18.7358 9.54923 18.407 9.63731L16.3999 10.1751Z" fill="black"/>
<circle cx="19.8023" cy="15.7945" r="2.24618" fill="black"/>
<circle cx="32.3809" cy="15.7945" r="2.24618" fill="black"/>
<path d="M22.257 27.4588C23.5499 28.036 24.9438 28.3528 26.3592 28.3913C27.7745 28.4297 29.1836 28.1891 30.5059 27.683" stroke="black" stroke-width="3.59389" stroke-linecap="round" stroke-linejoin="round"/>
</g>
<defs>
<clipPath id="clip0_1318_4923">
<rect width="182" height="39" fill="white"/>
</clipPath>
</defs>
</svg>
