<svg width="54" height="52" viewBox="0 0 54 52" fill="none" xmlns="http://www.w3.org/2000/svg">
<g clip-path="url(#clip0_1336_5066)">
<path d="M2.55224 19.371L2.55222 19.3708C2.14178 15.5874 4.1767 11.9749 7.59341 10.335L2.55224 19.371ZM2.55224 19.371C3.04771 23.9342 4.26037 28.8475 7.22899 33.8186C10.1959 38.7868 14.8521 43.7049 22.0844 48.3802L22.0845 48.3803C25.078 50.3151 28.9217 50.3154 31.9147 48.3803C39.1474 43.705 43.8036 38.787 46.7705 33.8189C49.7392 28.8479 50.9518 23.9347 51.4477 19.3711L51.4478 19.3708C51.8582 15.5874 49.8233 11.9749 46.4066 10.335C46.4066 10.335 46.4066 10.335 46.4066 10.335L30.8836 2.88439C28.4292 1.7053 25.5715 1.7052 23.117 2.88409C23.1168 2.88419 23.1166 2.88429 23.1164 2.88439L7.59345 10.335L2.55224 19.371Z" fill="#A7B3C7" stroke="black" stroke-width="4"/>
<path d="M26.9996 43.2745C26.5192 43.2745 26.0506 43.136 25.6449 42.8743C15.9057 36.5775 10.33 30.2461 9.07197 18.6636C8.96257 17.6608 9.50865 16.6899 10.4312 16.2477L25.9548 8.79678C26.2839 8.63906 26.6358 8.55884 26.9996 8.55884C27.3633 8.55884 27.7162 8.63906 28.0443 8.79678L43.5679 16.2486C44.4896 16.6908 45.0357 17.6617 44.9272 18.6636C43.6691 30.247 38.0935 36.5775 28.3543 42.8734C27.9486 43.136 27.48 43.2745 26.9996 43.2745Z" fill="#FFA500"/>
<path d="M13.7211 16.0362C13.2115 16.0362 12.7219 15.7509 12.4867 15.2604C12.1604 14.5794 12.4475 13.7617 13.1276 13.4353L21.4929 9.42037C22.1749 9.094 22.9917 9.38025 23.3181 10.0613C23.6444 10.7423 23.3573 11.56 22.6772 11.8864L14.3119 15.9013C14.1204 15.9934 13.9189 16.0362 13.7211 16.0362Z" fill="white"/>
<path opacity="0.3" d="M28.4915 4.16393C26.9863 3.83391 25.3982 4.00713 23.9824 4.68631L8.45883 12.1372C5.79954 13.4135 4.22239 16.2214 4.54055 19.1542C4.69371 20.5609 4.91798 22.0679 5.24435 23.6414C7.63379 23.2667 9.33675 21.0915 9.07237 18.6619C8.96297 17.6591 9.50905 16.6891 10.4316 16.247L25.9552 8.79603C27.7548 7.9327 28.7084 6.04193 28.4915 4.16393Z" fill="white"/>
<path opacity="0.15" d="M49.4596 19.1552C49.7777 16.2224 48.2006 13.4145 45.5413 12.1382L41.4316 10.1654C40.3421 12.4345 41.2985 15.1576 43.5685 16.247C44.4902 16.6892 45.0362 17.6601 44.9277 18.6629C43.6697 30.2464 38.094 36.5769 28.3548 42.8727C26.6774 43.9576 25.969 45.955 26.423 47.7911C27.9437 47.916 29.4944 47.5641 30.83 46.7008C44.8676 37.6262 48.5124 27.8715 49.4596 19.1552Z" fill="black"/>
<path d="M27.0006 27.8533C29.0146 27.8533 30.6472 26.2206 30.6472 24.2067C30.6472 22.1927 29.0146 20.5601 27.0006 20.5601C24.9866 20.5601 23.354 22.1927 23.354 24.2067C23.354 26.2206 24.9866 27.8533 27.0006 27.8533Z" fill="#9C34C2"/>
<path d="M27.0001 33.3231C25.9927 33.3231 25.1768 32.5072 25.1768 31.4998V26.9415H28.8234V31.4998C28.8234 32.5072 28.0074 33.3231 27.0001 33.3231Z" fill="#9C34C2"/>
</g>
<defs>
<clipPath id="clip0_1336_5066">
<rect width="54" height="52" fill="white"/>
</clipPath>
</defs>
</svg>
