<svg width="305" height="366" viewBox="0 0 305 366" fill="none" xmlns="http://www.w3.org/2000/svg">
<rect x="76.2505" y="316.436" width="160.124" height="49.5622" rx="24.7811" fill="black" fill-opacity="0.05"/>
<path d="M111.834 345.658C117.449 345.658 122.001 341.107 122.001 335.492C122.001 329.877 117.449 325.325 111.834 325.325C106.219 325.325 101.667 329.877 101.667 335.492C101.667 341.107 106.219 345.658 111.834 345.658Z" fill="#DA7200"/>
<path d="M199.942 345.658C205.557 345.658 210.109 341.107 210.109 335.492C210.109 329.877 205.557 325.325 199.942 325.325C194.328 325.325 189.776 329.877 189.776 335.492C189.776 341.107 194.328 345.658 199.942 345.658Z" fill="#DA7200"/>
<path d="M188.794 316.368C180.965 311.4 176.221 302.765 176.221 293.486V223.663H155.888H135.555V293.486C135.555 302.765 130.811 311.4 122.982 316.375L106.492 326.846L111.833 345.661H155.888H199.943L205.29 326.846L188.794 316.368Z" fill="#DA7200"/>
<path d="M281.904 158.977C287.916 149.19 291.44 137.716 291.44 125.387C291.44 90.5431 263.74 62.2327 229.167 61.1076C222.83 26.3584 192.466 0 155.887 0C119.267 0 88.8758 26.4262 82.5861 61.2364C81.0475 61.1076 79.509 60.9991 77.9434 60.9991C46.1289 60.9991 20.3331 86.795 20.3331 118.609C20.3331 126.966 22.1495 134.883 25.3485 142.047C9.96319 153.813 0 172.302 0 193.164C0 228.726 28.8255 257.552 64.388 257.552C75.334 257.552 85.636 254.8 94.6639 249.981C109.575 267.047 131.44 277.885 155.887 277.885C181.54 277.885 204.388 265.977 219.292 247.419C228.177 253.777 239.022 257.552 250.774 257.552C280.718 257.552 304.996 233.274 304.996 203.331C304.996 184.983 295.859 168.791 281.904 158.977Z" fill="#98C900"/>
<path opacity="0.15" d="M304.999 203.331C304.999 233.289 280.735 257.553 250.778 257.553C239.053 257.553 228.208 253.757 219.33 247.454C204.419 265.957 181.578 277.886 155.89 277.886C144.097 277.886 132.846 275.378 122.748 270.769C126.001 255.452 139.624 243.998 155.89 243.998C170.327 243.998 183.814 237.491 192.897 226.172C204.148 212.142 224.413 209.431 238.985 219.869C241.425 221.563 245.424 223.664 250.778 223.664C261.961 223.664 271.111 214.515 271.111 203.331C271.111 188.353 280.803 175.678 294.291 171.137C301.068 180.084 304.999 191.267 304.999 203.331Z" fill="black"/>
<path opacity="0.3" d="M188.898 7.72644C185.374 22.7051 171.954 33.8883 155.891 33.8883C136.236 33.8883 119.427 47.9181 115.971 67.2345C112.853 84.382 97.2641 96.3108 79.981 95.023C70.1534 94.2097 60.4613 99.7674 56.3269 108.849C50.6336 121.388 38.2983 128.776 25.4207 128.776C23.9974 128.776 22.6418 128.708 21.2185 128.437C20.6085 125.251 20.3374 121.93 20.3374 118.609C20.3374 86.822 46.1604 60.999 77.9477 60.999C79.5066 60.999 81.0654 61.1346 82.6243 61.2024C88.8598 26.4328 119.292 -0.00012207 155.891 -0.00012207C167.752 -0.00012207 178.935 2.77873 188.898 7.72644Z" fill="white"/>
<path d="M77.9424 94.8835C72.3305 94.8835 67.7759 90.3289 67.7759 84.717C67.7759 79.105 72.3305 74.5504 77.9424 74.5504C90.7997 74.5504 96.1744 70.477 98.472 59.0024C99.57 53.4989 104.972 49.9 110.435 51.0251C115.938 52.1231 119.517 57.4774 118.412 62.9877C114.183 84.1544 100.566 94.8835 77.9424 94.8835Z" fill="white"/>
</svg>
